# xmcd
#
# Track frame offsets:
# 150
# 18417
# 34897
# 50182
# 61357
# 77157
# 93563
# 110093
# 124660
# 137757
# 153349
# 167009
# 180131
# 196671
#
# Disc length: 2807 seconds
#
#
# Revision: 0
# Processed by: cddbd v1.5.2PL0 Copyright (c) Steve Scherf et al.
# Submitted via: FreeRIP 2.96 
#
DISCID=b70af50e
DTITLE=Variuos - Forrozão do Milênio
DYEAR=1900
DGENRE=Sertanejo
TTITLE0=Lorota
TTITLE1=Esperando na janela
TTITLE2=Sete Dias
TTITLE3=Garagem da Vizinha
TTITLE4=Coração Virou Peão
TTITLE5=Quando ela Quer
TTITLE6=Vou Levar Você
TTITLE7=Saudade Tá Judiando
TTITLE8=Tá no Pé, Tá Na Bota
TTITLE9=Do jeito que A Maçada Gosta
TTITLE10=Vazei na Branquiara
TTITLE11=Saudade Boa de Briga
TTITLE12=Meu Coração Pirou
TTITLE13=Forrô Em Goiás
EXTD=
EXTT0=
EXTT1=
EXTT2=
EXTT3=
EXTT4=
EXTT5=
EXTT6=
EXTT7=
EXTT8=
EXTT9=
EXTT10=
EXTT11=
EXTT12=
EXTT13=
PLAYORDER=
